# xmcd
#
# Track frame offsets:
#	150
#	21277
#	38841
#	57927
#	70380
#	81354
#	97594
#	110272
#	121856
#	130932
#	143011
#	160679
#	175025
#	187420
#	208139
#	229008
#
# Disc length: 3620
#
# Revision: 1
# Processed by: cddbd v1.5.1PL0 Copyright (c) Steve Scherf et al.
# Submitted via: ExactAudioCopy v0.90b4
# Normalized: r0:DSETVAR1
#
DISCID=d70e2210
DTITLE=Various Artist - Blues From Holland Vol 2
DYEAR=2003
DGENRE=Blues
TTITLE0=Cuby and The Blizzards - Night Train
TTITLE1=Rob Hoeke - A Bone For Rataplan
TTITLE2=Livin' Blues - L.B. Boogie
TTITLE3=Bintangs - Lion Tamer
TTITLE4=Q65 - Get Out Of My Life Woman
TTITLE5=Blues Dimension - B.D. Is Dead, Long Live B.D.
TTITLE6=Oscar Benton - I Feel So Good
TTITLE7=Cuby and The Blizzards - Trippin' Thru' A Midnight Blues
TTITLE8=Indiscrimination - Wishful Thinking
TTITLE9=Endatteme Jugband - Beeble Um Bum
TTITLE10=Flavium - Key To The Highway
TTITLE11=Rob Hoeke - Astri's Blues
TTITLE12=Lilvin' Blues - Bamboozle Song
TTITLE13=Bintangs - Blues With A Feeling
TTITLE14=Q65 - I'm A Man
TTITLE15=Cuby and The Blizzards - Sweet Little Angel
EXTD=
EXTT0=
EXTT1=
EXTT2=
EXTT3=
EXTT4=
EXTT5=
EXTT6=
EXTT7=
EXTT8=
EXTT9=
EXTT10=
EXTT11=
EXTT12=
EXTT13=
EXTT14=
EXTT15=
PLAYORDER=
